<?xml version="1.0" standalone="no"?>
<!DOCTYPE svg PUBLIC "-//W3C//DTD SVG 20010904//EN"
 "http://www.w3.org/TR/2001/REC-SVG-20010904/DTD/svg10.dtd">
<svg version="1.0" xmlns="http://www.w3.org/2000/svg"
 width="156.000000pt" height="125.000000pt" viewBox="0 0 156.000000 125.000000"
 preserveAspectRatio="xMidYMid meet">

<g transform="translate(0.000000,125.000000) scale(0.100000,-0.100000)"
fill="#000000" stroke="none">
<path d="M747 1194 c-4 -4 -7 -40 -7 -80 0 -85 3 -88 93 -98 32 -3 78 -16 103
-28 63 -29 151 -112 180 -169 47 -94 53 -281 9 -329 -8 -9 -15 -30 -15 -46 0
-27 -1 -27 -13 -9 -8 11 -21 40 -31 65 -19 49 -52 90 -73 90 -8 0 -1 17 18 43
71 101 37 218 -85 294 -32 21 -53 26 -110 27 l-71 1 -6 -110 -5 -110 -2 123
c-2 113 -3 122 -21 122 -11 0 -28 3 -38 6 -14 4 -15 4 -4 -4 10 -7 5 -12 -21
-21 -56 -19 -115 -76 -148 -146 -36 -75 -39 -133 -10 -194 25 -50 87 -121 106
-121 8 0 14 -4 14 -9 0 -14 92 -48 138 -50 71 -3 82 4 82 55 l0 44 65 0 c61 0
65 -1 80 -30 8 -16 15 -38 15 -50 0 -29 26 -79 64 -119 l31 -34 -36 21 c-35
21 -36 21 -53 3 -10 -11 -41 -29 -69 -42 -72 -31 -219 -32 -292 -3 -27 11 -49
26 -48 32 2 6 -3 9 -10 6 -7 -2 -34 14 -60 36 -51 45 -104 142 -113 205 -12
91 -5 85 -95 85 l-81 0 4 -82 c3 -74 8 -92 47 -171 121 -242 405 -367 656
-289 78 24 172 81 225 137 19 20 45 41 58 46 13 5 21 13 17 18 -3 6 8 32 25
59 16 27 30 53 30 58 0 5 6 21 14 35 44 85 46 253 4 369 -69 190 -245 338
-423 355 -38 3 -84 8 -100 11 -17 3 -34 2 -38 -2z m81 -52 c3 -11 0 -12 -16
-3 -15 8 -23 7 -32 -4 -15 -18 -6 -45 16 -45 10 0 14 5 10 15 -4 10 1 15 14
15 22 0 23 -1 14 -24 -9 -24 -61 -21 -74 4 -16 30 4 62 37 58 15 -2 28 -9 31
-16z m90 -40 c3 -45 -3 -52 -23 -25 -11 15 -15 15 -29 4 -24 -20 -21 4 5 40
27 39 43 32 47 -19z m82 13 c33 -17 38 -32 15 -41 -8 -4 -15 -15 -15 -25 0
-10 -4 -19 -10 -19 -5 0 -10 9 -10 20 0 23 -10 26 -28 8 -15 -15 -16 -1 -1 41
13 36 11 36 49 16z m92 -52 c25 -22 23 -51 -6 -64 -17 -8 -29 -8 -45 0 -25 14
-26 24 -5 56 19 29 31 31 56 8z m75 -65 c13 -12 23 -26 23 -31 0 -6 -12 0 -27
14 -15 13 -24 17 -21 9 4 -8 10 -24 14 -35 7 -20 7 -20 -14 -1 -28 24 -41 13
-17 -14 24 -27 7 -26 -22 2 l-23 22 27 28 c15 15 29 28 32 28 2 0 15 -10 28
-22z m47 -81 c-4 -12 -9 -28 -12 -36 -4 -11 -1 -11 16 -2 25 13 32 14 32 3 0
-10 -71 -45 -77 -38 -3 3 -1 19 5 35 10 29 1 43 -13 21 -7 -12 -25 -13 -25 -2
0 11 64 50 73 45 4 -3 5 -14 1 -26z m-323 -52 c70 -37 91 -137 42 -196 -22
-26 -76 -59 -98 -59 -3 0 -5 61 -5 135 0 149 1 151 61 120z m383 -41 c9 -25 7
-54 -4 -54 -6 0 -10 6 -9 13 4 31 -4 38 -10 7 -7 -42 -29 -46 -50 -8 -13 22
-13 30 -3 40 9 9 12 7 12 -14 0 -15 5 -30 10 -33 6 -4 10 8 10 29 0 29 4 36
19 36 10 0 22 -7 25 -16z m-547 -156 c-2 -13 -4 -3 -4 22 0 25 2 35 4 23 2
-13 2 -33 0 -45z m-34 -75 c-24 -2 -43 -8 -43 -13 0 -13 34 -30 59 -30 12 0
21 -1 21 -2 10 -61 10 -77 1 -83 -7 -4 -11 8 -11 32 0 35 -3 40 -32 48 -17 6
-38 20 -46 33 -14 22 -14 22 39 20 50 -1 51 -2 12 -5z"/>
<path d="M985 1090 c3 -5 8 -10 11 -10 2 0 4 5 4 10 0 6 -5 10 -11 10 -5 0 -7
-4 -4 -10z"/>
<path d="M1053 1040 c-9 -13 -9 -21 -2 -26 14 -8 43 21 35 35 -10 16 -20 14
-33 -9z"/>
<path d="M632 1104 c0 -37 23 -58 38 -34 4 7 13 9 19 6 6 -4 11 -2 11 4 0 6
-7 13 -15 16 -8 4 -15 15 -15 25 0 12 -7 19 -19 19 -15 0 -19 -7 -19 -36z m29
-17 c-1 -12 -15 -9 -19 4 -3 6 1 10 8 8 6 -3 11 -8 11 -12z"/>
<path d="M482 1068 c-22 -22 -14 -39 18 -36 35 4 41 -14 8 -24 -22 -6 -22 -6
-2 -7 25 -1 49 23 39 40 -4 6 -19 9 -36 5 -34 -7 -39 11 -6 24 13 5 16 9 7 9
-9 1 -21 -4 -28 -11z"/>
<path d="M400 992 c0 -5 13 -18 29 -30 29 -21 29 -21 46 -1 18 19 8 28 -11 9
-7 -7 -16 -4 -29 10 -19 21 -35 26 -35 12z"/>
<path d="M357 942 c-23 -25 -21 -49 3 -62 42 -22 82 34 48 68 -17 17 -32 15
-51 -6z m41 -4 c22 -22 14 -48 -13 -48 -30 0 -43 24 -25 45 15 18 22 19 38 3z"/>
<path d="M301 846 c-20 -23 -10 -60 17 -64 32 -5 54 16 50 47 -2 20 -9 27 -29
29 -14 2 -31 -4 -38 -12z m54 -26 c0 -18 -6 -26 -23 -28 -13 -2 -25 3 -28 12
-10 26 4 48 28 44 17 -2 23 -10 23 -28z"/>
<path d="M271 741 c-6 -11 -11 -29 -11 -40 0 -18 6 -21 43 -20 23 1 34 3 25 6
-10 3 -18 16 -20 35 -4 37 -22 47 -37 19z m29 -21 c0 -11 -7 -20 -15 -20 -17
0 -18 2 -9 24 9 23 24 20 24 -4z"/>
</g>
</svg>
